# Blender 4.2.0
# www.blender.org
mtllib CounterHitBox.mtl
o counterHitBox
v -2.028649 -0.343380 -2.854827
v -1.631006 -0.343380 -2.917808
v -2.917808 -0.343380 1.631006
v -2.854827 -0.343380 2.028649
v -2.672050 -0.343380 2.387369
v -2.387369 -0.343380 2.672050
v -2.028649 -0.343380 2.854827
v -1.631006 -0.343380 2.917808
v -2.917808 0.050998 1.631006
v -1.631006 0.050998 2.917808
v -2.854827 0.050998 2.028649
v -2.672050 0.050998 2.387369
v -2.387369 0.050998 2.672050
v -2.028649 0.050998 2.854827
v -1.631006 0.050998 -2.917808
v -2.917808 0.050998 -1.631006
v -2.028649 0.050998 -2.854827
v -2.387369 0.050998 -2.672050
v -2.672050 0.050998 -2.387369
v -2.854827 0.050998 -2.028649
v 1.631006 0.050998 2.917808
v 2.917808 0.050998 1.631006
v 2.028649 0.050998 2.854827
v 2.387369 0.050998 2.672050
v 2.672050 0.050998 2.387369
v 2.854827 0.050998 2.028649
v 2.917808 0.050998 -1.631006
v 1.631006 0.050998 -2.917808
v 2.854827 0.050998 -2.028649
v 2.672050 0.050998 -2.387369
v 2.387369 0.050998 -2.672050
v 2.028649 0.050998 -2.854827
v -2.387369 -0.343380 -2.672050
v -2.672050 -0.343380 -2.387369
v -2.854827 -0.343380 -2.028649
v -2.917808 -0.343380 -1.631006
v 2.917808 -0.343380 -1.631006
v 2.854827 -0.343380 -2.028649
v 2.672050 -0.343380 -2.387369
v 2.387369 -0.343380 -2.672050
v 2.028649 -0.343380 -2.854827
v 1.631006 -0.343380 -2.917808
v 1.631006 -0.343380 2.917808
v 2.028649 -0.343380 2.854827
v 2.387369 -0.343380 2.672050
v 2.672050 -0.343380 2.387369
v 2.854827 -0.343380 2.028649
v 2.917808 -0.343380 1.631006
v -1.309481 -0.343380 2.342613
v -1.628737 -0.343380 2.292048
v -1.916741 -0.343380 2.145303
v -2.145303 -0.343380 1.916741
v -2.292048 -0.343380 1.628737
v -2.342613 -0.343380 1.309482
v -1.309481 -0.343380 -2.342613
v 2.342613 -0.343380 -1.309482
v 1.309482 -0.343380 2.342613
v -1.628737 -0.343380 -2.292048
v -1.916741 -0.343380 -2.145303
v -2.145303 -0.343380 -1.916741
v -2.292048 -0.343380 -1.628737
v -2.342613 -0.343380 -1.309482
v 2.292048 -0.343380 -1.628737
v 2.145303 -0.343380 -1.916741
v 1.916741 -0.343380 -2.145303
v 1.628737 -0.343380 -2.292048
v 1.309482 -0.343380 -2.342613
v 1.628737 -0.343380 2.292048
v 1.916741 -0.343380 2.145303
v 2.145303 -0.343380 1.916741
v 2.292048 -0.343380 1.628737
v 2.342613 -0.343380 1.309482
vn -0.0000 -0.0000 1.0000
vn 1.0000 -0.0000 -0.0000
vn -0.0000 1.0000 -0.0000
vn -1.0000 -0.0000 -0.0000
vn -0.0000 -0.0000 -1.0000
vn -0.1564 -0.0000 0.9877
vn -0.4540 -0.0000 0.8910
vn -0.7071 -0.0000 0.7071
vn -0.8910 -0.0000 0.4540
vn -0.9877 -0.0000 0.1564
vn -0.0000 -1.0000 -0.0000
vn 0.9877 -0.0000 0.1564
vn 0.8910 -0.0000 0.4540
vn 0.7071 -0.0000 0.7071
vn 0.4540 -0.0000 0.8910
vn 0.1564 -0.0000 0.9877
vn 0.1564 -0.0000 -0.9877
vn 0.4540 -0.0000 -0.8910
vn 0.7071 -0.0000 -0.7071
vn 0.8910 -0.0000 -0.4540
vn 0.9877 -0.0000 -0.1564
vn -0.9877 -0.0000 -0.1564
vn -0.8910 -0.0000 -0.4540
vn -0.7071 -0.0000 -0.7071
vn -0.4540 -0.0000 -0.8910
vn -0.1564 -0.0000 -0.9877
vt 0.608105 0.805127
vt 0.625000 0.805127
vt 0.625000 0.944873
vt 0.608105 0.944873
vt 0.608105 0.555127
vt 0.625000 0.555127
vt 0.625000 0.694873
vt 0.608105 0.694873
vt 0.625000 0.461908
vt 0.625000 0.288092
vt 0.625000 0.272724
vt 0.625000 0.477276
vt 0.625000 0.211908
vt 0.625000 0.038092
vt 0.625000 0.022724
vt 0.625000 0.227276
vt 0.608105 0.055127
vt 0.625000 0.055127
vt 0.625000 0.194873
vt 0.608105 0.194873
vt 0.608105 0.305127
vt 0.625000 0.305127
vt 0.625000 0.444873
vt 0.608105 0.444873
vt 0.625000 0.961908
vt 0.608105 0.961908
vt 0.625000 1.000000
vt 0.608105 1.000000
vt 0.608105 0.000000
vt 0.625000 0.000000
vt 0.608105 0.022724
vt 0.608105 0.038092
vt 0.608105 0.727276
vt 0.608105 0.772724
vt 0.608105 0.711908
vt 0.608105 0.288092
vt 0.608105 0.272724
vt 0.608105 0.227276
vt 0.625000 0.538092
vt 0.625000 0.711908
vt 0.625000 0.727276
vt 0.625000 0.522724
vt 0.625000 0.788092
vt 0.625000 0.772724
vt 0.608105 0.788092
vt 0.608105 0.461908
vt 0.608105 0.477276
vt 0.608105 0.522724
vt 0.608105 0.538092
vt 0.608105 0.211908
s 0
usemtl Material
f 43/1/1 21/2/1 10/3/1 8/4/1
f 37/5/2 27/6/2 22/7/2 48/8/2
f 32/9/3 17/10/3 18/11/3 31/12/3
f 20/13/3 11/14/3 12/15/3 19/16/3
f 3/17/4 9/18/4 16/19/4 36/20/4
f 2/21/5 15/22/5 28/23/5 42/24/5
f 8/4/6 10/3/6 14/25/6 7/26/6
f 7/26/7 14/25/7 13/27/7 6/28/7
f 6/29/8 13/30/8 12/15/8 5/31/8
f 5/31/9 12/15/9 11/14/9 4/32/9
f 4/32/10 11/14/10 9/18/10 3/17/10
f 46/33/11 45/34/11 69/34/11 70/33/11
f 4/32/11 3/17/11 54/17/11 53/32/11
f 47/35/11 46/33/11 70/33/11 71/35/11
f 1/36/11 2/21/11 55/21/11 58/36/11
f 48/8/11 47/35/11 71/35/11 72/8/11
f 33/37/11 1/36/11 58/36/11 59/37/11
f 34/38/11 33/37/11 59/37/11 60/38/11
f 20/13/3 16/19/3 9/18/3 11/14/3
f 17/10/3 32/9/3 28/23/3 15/22/3
f 29/39/3 26/40/3 22/7/3 27/6/3
f 25/41/3 26/40/3 29/39/3 30/42/3
f 14/25/3 10/3/3 21/2/3 23/43/3
f 23/43/3 24/44/3 13/27/3 14/25/3
f 18/11/3 19/16/3 12/15/3 13/30/3
f 25/41/3 30/42/3 31/12/3 24/44/3
f 13/27/3 24/44/3 31/12/3 18/11/3
f 26/40/12 47/35/12 48/8/12 22/7/12
f 25/41/13 46/33/13 47/35/13 26/40/13
f 24/44/14 45/34/14 46/33/14 25/41/14
f 23/43/15 44/45/15 45/34/15 24/44/15
f 21/2/16 43/1/16 44/45/16 23/43/16
f 32/9/17 41/46/17 42/24/17 28/23/17
f 31/12/18 40/47/18 41/46/18 32/9/18
f 30/42/19 39/48/19 40/47/19 31/12/19
f 29/39/20 38/49/20 39/48/20 30/42/20
f 27/6/21 37/5/21 38/49/21 29/39/21
f 20/13/22 35/50/22 36/20/22 16/19/22
f 19/16/23 34/38/23 35/50/23 20/13/23
f 18/11/24 33/37/24 34/38/24 19/16/24
f 17/10/25 1/36/25 33/37/25 18/11/25
f 15/22/26 2/21/26 1/36/26 17/10/26
f 35/50/11 34/38/11 60/38/11 61/50/11
f 36/20/11 35/50/11 61/50/11 62/20/11
f 43/1/11 8/4/11 49/4/11 57/1/11
f 5/31/11 4/32/11 53/32/11 52/31/11
f 45/34/11 44/45/11 68/45/11 69/34/11
f 6/29/11 5/31/11 52/31/11 51/29/11
f 44/45/11 43/1/11 57/1/11 68/45/11
f 7/26/11 6/28/11 51/28/11 50/26/11
f 42/24/11 41/46/11 66/46/11 67/24/11
f 8/4/11 7/26/11 50/26/11 49/4/11
f 41/46/11 40/47/11 65/47/11 66/46/11
f 2/21/11 42/24/11 67/24/11 55/21/11
f 40/47/11 39/48/11 64/48/11 65/47/11
f 3/17/11 36/20/11 62/20/11 54/17/11
f 39/48/11 38/49/11 63/49/11 64/48/11
f 37/5/11 48/8/11 72/8/11 56/5/11
f 38/49/11 37/5/11 56/5/11 63/49/11
f 62/20/11 61/50/11 53/32/11 54/17/11
f 61/50/11 60/38/11 52/31/11 53/32/11
f 60/38/11 59/37/11 51/29/11 52/31/11
f 69/34/11 68/45/11 50/26/11 51/28/11
f 68/45/11 57/1/11 49/4/11 50/26/11
f 66/46/11 58/36/11 55/21/11 67/24/11
f 65/47/11 59/37/11 58/36/11 66/46/11
f 69/34/11 65/47/11 64/48/11 70/33/11
f 70/33/11 64/48/11 63/49/11 71/35/11
f 71/35/11 63/49/11 56/5/11 72/8/11
f 59/37/11 65/47/11 69/34/11 51/28/11
